<svg data-v-0dd9719b="" version="1.0" xmlns="http://www.w3.org/2000/svg" xmlns:xlink="http://www.w3.org/1999/xlink" width="100%" height="100%" viewBox="0 0 340.000000 250.000000" preserveAspectRatio="xMidYMid meet" color-interpolation-filters="sRGB" style="margin: auto;"> <rect data-v-0dd9719b="" x="0" y="0" width="100%" height="100%" fill="#ffffff" fill-opacity="1" class="background"></rect> <rect data-v-0dd9719b="" x="0" y="0" width="100%" height="100%" fill="url(#watermark)" fill-opacity="1" class="watermarklayer"></rect> <g data-v-0dd9719b="" fill="#26125b" class="icon-text-wrapper icon-svg-group iconsvg" transform="translate(49.11499786376953,97.77375030517578)"><g class="iconsvg-imagesvg" transform="translate(0,0.6116275787353516)"><g><rect fill="#26125b" fill-opacity="0" stroke-width="2" x="0" y="0" width="60" height="53.22924059616749" class="image-rect"></rect> <svg filter="url(#colors3313671445)" x="0" y="0" width="60" height="53.22924059616749" filtersec="colorsf2390029229" class="image-svg-svg primary" style="overflow: visible;"><svg xmlns="http://www.w3.org/2000/svg" data-name="Layer 1" viewBox="10.75 16.289249420166016 98.45008087158203 87.34075927734375" x="0px" y="0px"><title>landmark-asia-2</title><path d="M60,103.63C32.85,103.63,10.75,84.5,10.75,61a39.5,39.5,0,0,1,12.13-28,2,2,0,1,1,2.82,2.84A35.52,35.52,0,0,0,14.75,61c0,21.31,20.3,38.65,45.25,38.65S105.25,82.29,105.25,61a35.54,35.54,0,0,0-11-25.2,2,2,0,1,1,2.82-2.84,39.5,39.5,0,0,1,12.13,28C109.25,84.5,87.15,103.63,60,103.63Z"></path><path d="M81,38.77H39.21a35.73,35.73,0,0,1-12-2.06L20.6,34.38a2,2,0,0,1-.11-3.73L30.94,26.2l2.34-8.37a2,2,0,1,1,3.85,1.08l-2.6,9.29a2,2,0,0,1-1.14,1.3l-6.61,2.82,1.77.62a32,32,0,0,0,10.66,1.83H81a31.73,31.73,0,0,0,11-2l1.23-.45-6.7-2.85a2,2,0,0,1-1.14-1.3l-2.6-9.29a2,2,0,1,1,3.85-1.08l2.34,8.37,10.45,4.45a2,2,0,0,1-.09,3.72l-6,2.19A36,36,0,0,1,81,38.77Z"></path><path d="M85.2,21.83H34.8a2,2,0,0,1,0-4H85.2a2,2,0,0,1,0,4Z"></path><path d="M26.58,58.65a2,2,0,0,1-2-2V34.37a2,2,0,0,1,4,0V56.65A2,2,0,0,1,26.58,58.65Z"></path><path d="M93.42,58.65a2,2,0,0,1-2-2V34.37a2,2,0,1,1,4,0V56.65A2,2,0,0,1,93.42,58.65Z"></path><path d="M100,64.6H20a2,2,0,0,1-1.34-3.48l6.58-5.95a2,2,0,0,1,1.34-.52H85.2a2,2,0,0,1,0,4H27.35l-2.15,2H94.8l-2.72-2.46a2,2,0,1,1,2.68-3l6.58,5.95A2,2,0,0,1,100,64.6Z"></path><path d="M93.42,90.78a2,2,0,0,1-2-2V63.53a2,2,0,1,1,4,0V88.78A2,2,0,0,1,93.42,90.78Z"></path><path d="M26.58,90.78a2,2,0,0,1-2-2V63.53a2,2,0,0,1,4,0V88.78A2,2,0,0,1,26.58,90.78Z"></path><path d="M60,58.65a2,2,0,0,1-2-2V36.77a2,2,0,0,1,4,0V56.65A2,2,0,0,1,60,58.65Z"></path><path d="M76.5,58.65a2,2,0,0,1-2-2V36.77a2,2,0,0,1,4,0V56.65A2,2,0,0,1,76.5,58.65Z"></path><path d="M43.29,58.65a2,2,0,0,1-2-2V36.77a2,2,0,0,1,4,0V56.65A2,2,0,0,1,43.29,58.65Z"></path><path d="M26.58,47.51a2,2,0,0,1-1-3.71l5.27-3.17a2,2,0,0,1,1-.29h6a2,2,0,0,1,0,4H32.41l-4.8,2.88A1.94,1.94,0,0,1,26.58,47.51Z"></path><path d="M43.29,47.51a2,2,0,0,1-1-3.71l5.27-3.17a2,2,0,0,1,1-.29h6a2,2,0,0,1,0,4H49.12l-4.8,2.88A1.94,1.94,0,0,1,43.29,47.51Z"></path><path d="M59.9,47.51a2,2,0,0,1-1.72-1,2,2,0,0,1,.69-2.74l5.27-3.17a2,2,0,0,1,1-.29h6a2,2,0,0,1,0,4H65.72l-4.79,2.88A2,2,0,0,1,59.9,47.51Z"></path><path d="M76.5,47.51a2,2,0,0,1-1-3.71l5.27-3.17a2,2,0,0,1,1-.29h6a2,2,0,1,1,0,4H82.33l-4.8,2.88A1.94,1.94,0,0,1,76.5,47.51Z"></path><path d="M60,103.63a2,2,0,0,1-2-2v-39a2,2,0,1,1,4,0v39A2,2,0,0,1,60,103.63Z"></path><path d="M76.5,100a2,2,0,0,1-2-2V62.6a2,2,0,1,1,4,0V98A2,2,0,0,1,76.5,100Z"></path><path d="M43.29,100a2,2,0,0,1-2-2V62.6a2,2,0,0,1,4,0V98A2,2,0,0,1,43.29,100Z"></path><path d="M26.58,74.23a2,2,0,0,1-1.71-1,2,2,0,0,1,.68-2.74l5.27-3.17a2,2,0,0,1,1-.29h6a2,2,0,0,1,0,4H32.41L27.61,74A2,2,0,0,1,26.58,74.23Z"></path><path d="M43.29,74.23a2,2,0,0,1-1.71-1,2,2,0,0,1,.68-2.74l5.27-3.17a2,2,0,0,1,1-.29h6a2,2,0,0,1,0,4H49.12L44.32,74A2,2,0,0,1,43.29,74.23Z"></path><path d="M59.9,74.23a2,2,0,0,1-1-3.71l5.27-3.17a2,2,0,0,1,1-.29h6a2,2,0,0,1,0,4H65.72L60.93,74A2,2,0,0,1,59.9,74.23Z"></path><path d="M76.5,74.23a2,2,0,0,1-1.71-1,2,2,0,0,1,.68-2.74l5.27-3.17a2,2,0,0,1,1-.29h6a2,2,0,0,1,0,4H82.33L77.53,74A2,2,0,0,1,76.5,74.23Z"></path></svg></svg> <defs><filter id="colors3313671445"><feColorMatrix type="matrix" values="0 0 0 0 0.73046875  0 0 0 0 0.1796875  0 0 0 0 0.1796875  0 0 0 1 0" class="icon-fecolormatrix"></feColorMatrix></filter> <filter id="colorsf2390029229"><feColorMatrix type="matrix" values="0 0 0 0 0.99609375  0 0 0 0 0.99609375  0 0 0 0 0.99609375  0 0 0 1 0" class="icon-fecolormatrix"></feColorMatrix></filter> <filter id="colorsb173846993"><feColorMatrix type="matrix" values="0 0 0 0 0  0 0 0 0 0  0 0 0 0 0  0 0 0 1 0" class="icon-fecolormatrix"></feColorMatrix></filter></defs></g></g> <g transform="translate(67,0)"><g data-gra="path-name" fill-rule="" class="tp-name iconsvg-namesvg" transform="translate(0,0)"><g transform="scale(1)"><g><path d="M32 3.1L32 3.1Q28.64 3.1 28.64 1.44L28.64 1.44Q28.64 1.09 28.86 0.92L28.86 0.92Q29.77 0.22 31.56 0.22L31.56 0.22 31.78 0.22Q34.31 0.22 34.46 0.09 34.61-0.04 34.61-19.97L34.61-19.97Q34.61-21.27 34.35-21.27L34.35-21.27 10.81-21.27Q10.55-21.27 10.55-19.97L10.55-19.97 10.55 1.35Q10.55 3.1 7.76 3.1L7.76 3.1Q4.97 3.1 4.97 1.35L4.97 1.35 4.97-21.93Q4.97-22.76 5.84-23.63 6.71-24.5 8.59-24.5L8.59-24.5 19.01-24.5Q19.05-25.11 19.18-26.11L19.18-26.11Q19.4-27.73 19.53-28.99L19.53-28.99 5.58-28.99Q2.92-28.99 2.92-30.65L2.92-30.65Q2.92-32.26 5.58-32.26L5.58-32.26 19.79-32.26Q19.97-33.13 19.97-34.35L19.97-34.35Q20.1-36.14 22.54-36.14L22.54-36.14Q25.81-36.14 25.81-34.4L25.81-34.4 25.55-32.26 39.58-32.26Q42.24-32.26 42.24-30.65L42.24-30.65Q42.24-28.99 39.58-28.99L39.58-28.99 25.11-28.99Q24.85-27.07 24.37-24.5L24.37-24.5 36.66-24.5Q38.54-24.5 39.41-23.63 40.28-22.76 40.28-21.93L40.28-21.93 40.28-1Q40.28 0.31 39.87 1.07 39.45 1.83 38.06 2.4L38.06 2.4Q36.44 3.01 32 3.1ZM22.45 2.14L22.45 2.14Q19.75 2.14 19.75 0.48L19.75 0.48 19.75-5.01 13.47-5.01Q11.07-5.01 11.07-6.41L11.07-6.41Q11.07-7.76 13.47-7.76L13.47-7.76 19.75-7.76 19.75-12.03 14.34-12.03Q11.99-12.03 11.99-13.38L11.99-13.38Q11.99-14.69 14.34-14.69L14.34-14.69 16.04-14.69Q15.43-17.26 14.3-19.53L14.3-19.53Q14.47-19.53 15.17-19.7 15.87-19.88 16.43-19.88L16.43-19.88Q17.48-19.88 18.44-19.29 19.4-18.7 19.79-17.83L19.79-17.83Q20.1-17.22 20.1-16.78L20.1-16.78Q20.1-15.78 18.53-15.35L18.53-15.35 17.18-14.69 24.11-14.69Q24.89-16.57 25.68-18.75L25.68-18.75Q26.11-20.23 27.81-20.23L27.81-20.23Q28.38-20.23 29.08-20.05L29.08-20.05Q30.73-19.66 30.73-18.83L30.73-18.83Q30.73-18.66 30.65-18.44L30.65-18.44Q30.04-17.13 28.99-14.69L28.99-14.69 30.95-14.69Q33.31-14.69 33.31-13.38L33.31-13.38Q33.31-12.03 30.95-12.03L30.95-12.03 25.15-12.03 25.15-7.76 31.74-7.76Q34.13-7.76 34.13-6.41L34.13-6.41Q34.13-5.01 31.74-5.01L31.74-5.01 25.15-5.01 25.15 0.48Q25.15 2.14 22.45 2.14ZM61.69 3.14L61.69 3.14Q57.98 3.14 57.98 1.26L57.98 1.26Q57.98 0.83 58.33 0.61L58.33 0.61Q59.29-0.09 61.12-0.09L61.12-0.09 61.34-0.09Q64.04-0.09 64.15-0.17 64.26-0.26 64.26-11.55L64.26-11.55 56.37-11.55Q54.49-11.55 53.62-12.42 52.75-13.3 52.75-14.12L52.75-14.12 52.75-21.71Q52.75-22.54 53.62-23.41 54.49-24.28 56.37-24.28L56.37-24.28 78.34-24.28Q80.21-24.28 81.09-23.41 81.96-22.54 81.96-21.71L81.96-21.71 81.96-14.12Q81.96-13.3 81.09-12.42 80.21-11.55 78.34-11.55L78.34-11.55 70.01-11.55 70.01-1.05Q70.01 0.35 69.66 1L69.66 1Q68.66 3.14 61.69 3.14ZM50.66 1.18L50.66 1.18Q49.57 1.18 48.48 0.35L48.48 0.35Q47.87-0.13 47.87-0.61L47.87-0.61Q47.87-1.09 48.48-1.57L48.48-1.57Q51.35-4.14 53.32-7.15L53.32-7.15Q54.14-8.5 55.71-8.5L55.71-8.5Q56.45-8.5 57.37-8.2L57.37-8.2Q58.94-7.67 58.94-6.93L58.94-6.93Q58.94-6.67 58.76-6.41L58.76-6.41Q55.93-2.48 52.97 0.22L52.97 0.22Q51.83 1.18 50.66 1.18ZM83.05 1.4L83.05 1.4Q81.43 1.4 80.61 0.09L80.61 0.09Q78.29-3.05 75.55-6.15L75.55-6.15Q75.2-6.54 75.2-6.84L75.2-6.84Q75.2-7.45 76.27-7.98 77.34-8.5 78.25-8.5L78.25-8.5Q80.47-8.5 86.23-0.87L86.23-0.87Q86.58-0.44 86.58-0.31L86.58-0.31Q86.58 0.04 85.14 0.83L85.14 0.83Q84.05 1.4 83.05 1.4ZM58.59-14.52L75.9-14.52Q76.16-14.52 76.16-15.82L76.16-15.82 76.16-19.92Q76.16-21.23 75.9-21.23L75.9-21.23 58.59-21.23Q58.33-21.23 58.33-19.92L58.33-19.92 58.33-15.82Q58.33-14.52 58.59-14.52L58.59-14.52ZM84.01-28.34L84.01-28.34 50.35-28.34Q47.65-28.34 47.65-30.04L47.65-30.04Q47.65-31.69 50.35-31.69L50.35-31.69 64.17-31.69 64.17-34.48Q64.17-36.36 67.09-36.36L67.09-36.36Q70.01-36.36 70.01-34.48L70.01-34.48 70.01-31.69 84.01-31.69Q86.71-31.69 86.71-30.04L86.71-30.04Q86.71-28.34 84.01-28.34ZM117.4 3.14L117.4 3.14Q115.87 3.14 114.7 2.62L114.7 2.62Q113.13 1.87 113.13 0.87L113.13 0.87Q113.13 0.44 113.56 0.13L113.56 0.13Q114.52-0.57 116.35-0.57L116.35-0.57 120.89-0.57Q121.41-0.57 121.41-2.05L121.41-2.05 121.41-29.77 95.17-29.77Q92.38-29.77 92.38-31.56L92.38-31.56Q92.38-33.31 95.17-33.31L95.17-33.31 129.52-33.31Q132.31-33.31 132.31-31.56L132.31-31.56Q132.31-29.77 129.52-29.77L129.52-29.77 127.16-29.77 127.16-1.96Q127.16-0.26 126.64 0.74L126.64 0.74Q125.46 3.01 117.4 3.14ZM112.34-7.67L112.34-7.67 100.22-7.67Q98.35-7.67 97.48-8.54 96.6-9.42 96.6-10.24L96.6-10.24 96.6-20.97Q96.6-21.8 97.48-22.67 98.35-23.54 100.22-23.54L100.22-23.54 112.34-23.54Q114.22-23.54 115.09-22.67 115.96-21.8 115.96-20.97L115.96-20.97 115.96-10.24Q115.96-9.42 115.09-8.54 114.22-7.67 112.34-7.67ZM102.36-10.99L110.16-10.99Q110.42-10.99 110.42-12.29L110.42-12.29 110.42-18.92Q110.42-20.23 110.16-20.23L110.16-20.23 102.36-20.23Q102.1-20.23 102.1-18.92L102.1-18.92 102.1-12.29Q102.1-10.99 102.36-10.99L102.36-10.99ZM156.59 2.7L156.59 2.7Q155.11 2.7 154.24 1.31L154.24 1.31Q154.06 1 154.06 0.7L154.06 0.7Q154.06-0.13 155.5-0.83L155.5-0.83 158.16-2.35 152.01-1.35Q139.46 0.78 138.89 0.78L138.89 0.78Q138.11 0.78 137.8 0.48L137.8 0.48Q137.02-0.39 137.02-1.31L137.02-1.31Q137.02-2.53 139.02-2.88L139.02-2.88Q139.85-2.96 140.98-3.14L140.98-3.14 144.73-3.66 144.73-10.38 140.63-10.38Q138.02-10.38 138.02-11.99L138.02-11.99Q138.02-13.56 140.63-13.56L140.63-13.56 144.73-13.56 144.73-16.61Q144.73-18.22 147.44-18.22L147.44-18.22Q150.09-18.22 150.09-16.61L150.09-16.61 150.09-13.56 154.5-13.56Q157.11-13.56 157.11-11.99L157.11-11.99Q157.11-10.38 154.5-10.38L154.5-10.38 150.09-10.38 150.09-4.88Q150.09-4.62 150.66-4.62L150.66-4.62 151.36-4.66Q154.45-5.23 155.28-5.23L155.28-5.23Q156.55-5.23 157.46-4.49 158.38-3.75 158.38-2.53L158.38-2.53Q160.64-3.92 163.48-7.89L163.48-7.89Q160.99-12.99 159.99-16.87L159.99-16.87Q160.86-18.48 160.86-18.57L160.86-18.57Q160.82-18.57 160.21-17.57L160.21-17.57Q159.42-16.39 157.85-16.39L157.85-16.39Q156.15-16.39 154.89-17.44L154.89-17.44Q154.37-17.83 154.28-18.09L154.28-18.09Q154.28-18.18 154.19-18.18L154.19-18.18Q154.11-18.18 153.71-17.66L153.71-17.66 155.28-18.96Q154.37-18.53 153.89-18.53L153.89-18.53Q153.41-18.53 153.28-18.88L153.28-18.88 152.93-19.7Q152.88-19.7 152.67-20.18L152.67-20.18Q150.09-19.92 143.25-19.36L143.25-19.36Q139.63-19.05 139.2-19.05L139.2-19.05Q136.89-19.05 136.89-20.79L136.89-20.79Q136.89-22.32 139.76-22.32L139.76-22.32Q141.2-25.63 142.6-30.56L142.6-30.56 139.72-30.56Q137.1-30.56 137.1-32.17L137.1-32.17Q137.1-33.74 139.72-33.74L139.72-33.74 155.33-33.74Q157.94-33.74 157.94-32.17L157.94-32.17Q157.94-30.56 155.33-30.56L155.33-30.56 148.39-30.56Q146.82-26.72 144.91-22.63L144.91-22.63 150.53-23.02Q151.1-23.45 151.05-23.54L151.05-23.54 149.57-25.98Q149.44-26.16 149.44-26.37L149.44-26.37Q149.44-26.9 150.44-27.38 151.45-27.86 152.27-27.86L152.27-27.86Q153.54-27.86 154.32-26.72L154.32-26.72Q156.11-24.24 157.37-21.84L157.37-21.84Q157.24-22.15 156.94-22.15L156.94-22.15Q156.68-22.15 156.46-21.75L156.46-21.75Q158.99-26.81 160.43-34.18L160.43-34.18Q160.82-36.1 162.91-36.1L162.91-36.1 163.7-36.05Q166.18-35.66 166.18-34.31L166.18-34.31Q166.18-33.26 164.74-28.34L164.74-28.34 175.03-28.34Q177.69-28.34 177.69-26.72L177.69-26.72Q177.69-25.11 175.16-24.59L175.16-24.59Q173.42-14.47 169.45-7.8L169.45-7.8Q172.55-3.27 175.95-0.96L175.95-0.96Q177.47-0.13 177.47 0.48L177.47 0.48Q177.47 0.74 176.99 1.35L176.99 1.35Q175.99 2.66 174.59 2.66L174.59 2.66Q173.46 2.66 172.07 1.83L172.07 1.83Q168.19-0.7 166.27-3.53L166.27-3.53Q164-0.83 159.03 2.01L159.03 2.01Q157.68 2.7 156.59 2.7ZM166.57-13.43L166.57-13.43Q168.19-16.83 169.49-25.11L169.49-25.11 163.7-25.11 163.52-24.67Q165.05-16.61 166.57-13.43Z" transform="translate(-2.9200000762939453, 36.36000061035156)"></path></g> <!----> <!----> <!----> <!----> <!----> <!----> <!----></g></g> <g data-gra="path-slogan" fill-rule="" class="tp-slogan iconsvg-slogansvg" fill="#26125b" transform="translate(42.875,45.5)"><!----> <!----> <g transform="scale(1, 1)"><g transform="scale(1)"><path d="M2.30-8.58L6.61-1.64L6.61-8.58L7.73-8.58L7.73 0L6.42 0L2.06-6.94L2.02-6.94L2.02 0L0.89 0L0.89-8.58L2.30-8.58ZM15.19 0L14.34-2.48L10.88-2.48L9.98 0L8.81 0L12.05-8.58L13.36-8.58L16.45 0L15.19 0ZM12.61-7.31L11.25-3.52L13.92-3.52L12.66-7.31L12.61-7.31ZM18.89-8.58L23.20-1.64L23.20-8.58L24.33-8.58L24.33 0L23.02 0L18.66-6.94L18.61-6.94L18.61 0L17.48 0L17.48-8.58L18.89-8.58ZM25.41-1.92L25.41-2.77L26.48-2.77L26.48-2.16Q26.48-0.75 27.80-0.75L27.80-0.75Q29.16-0.75 29.16-2.25L29.16-2.25L29.16-8.58L30.33-8.58L30.33-2.30Q30.28 0.09 27.84 0.14L27.84 0.14Q25.55 0.09 25.41-1.92L25.41-1.92ZM32.30-8.58L33.47-8.58L33.47 0L32.30 0L32.30-8.58ZM36.84-8.58L41.16-1.64L41.16-8.58L42.28-8.58L42.28 0L40.97 0L36.61-6.94L36.56-6.94L36.56 0L35.44 0L35.44-8.58L36.84-8.58ZM50.48-3.61L47.86-3.61L47.86-4.59L51.61-4.59L51.61 0L50.86 0L50.58-1.08Q49.59 0.09 47.77 0.14L47.77 0.14Q46.03 0.14 45.09-0.75L45.09-0.75Q43.69-2.06 43.73-4.36L43.73-4.36Q44.06-8.63 47.81-8.81L47.81-8.81Q51-8.63 51.47-6L51.47-6L50.34-6Q49.88-7.78 47.77-7.83L47.77-7.83Q45.09-7.64 44.95-4.31L44.95-4.31Q44.95-0.75 47.81-0.75L47.81-0.75Q48.84-0.75 49.59-1.31L49.59-1.31Q50.53-2.06 50.48-3.61L50.48-3.61ZM59.25-4.31L57.89-3.05L57.89 0L56.72 0L56.72-8.58L57.89-8.58L57.89-4.41L62.06-8.58L63.70-8.58L60.09-5.11L63.80 0L62.25 0L59.25-4.31ZM66-1.03L71.16-1.03L71.16 0L64.83 0L64.83-8.58L71.06-8.58L71.06-7.59L66-7.59L66-4.92L70.69-4.92L70.69-3.89L66-3.89L66-1.03ZM73.50-1.03L78.80-1.03L78.80 0L72.05 0L72.05-0.94L77.30-7.59L72.42-7.59L72.42-8.58L78.80-8.58L78.80-7.59L73.50-1.03ZM81.09-5.06L85.59-5.06L85.59-8.58L86.77-8.58L86.77 0L85.59 0L85.59-3.98L81.09-3.98L81.09 0L79.92 0L79.92-8.58L81.09-8.58L81.09-5.06ZM88.73-8.58L89.91-8.58L89.91 0L88.73 0L88.73-8.58Z" transform="translate(-0.890625, 8.8125)"></path></g></g></g></g></g><defs v-gra="od"></defs></svg>